<?xml version="1.0" encoding="UTF-8"?>
<svg xmlns="http://www.w3.org/2000/svg" width="512" height="512" viewBox="0 0 58 36" role="img" aria-label="Racing car">
  <g fill="none" fill-rule="evenodd">
    <polygon fill="#7f8c8d" points="42 15.826 42 5 46 5 46 17"/>
    <polygon fill="#7f8c8d" points="46 18 46 31 42 31 42 19.271"/>
    <path fill="#802f34" d="M27.21 30H15.73C15.38 29.4 13.74 33 13 33l-1 1-2-13 16.06 8.77c.364.153.755.231 1.15.23Z"/>
    <polygon fill="#7f8c8d" points="12 24.32 12 29 6 31 5 20"/>
    <path fill="#802f34" d="M27.21 6c-.395-.001-.786.077-1.15.23L11 16 9 4l2-2c.74 0 4.38 4.6 4.73 4h11.48Z"/>
    <polygon fill="#7f8c8d" points="12 7 12 11.68 6 15 5 3"/>
    <path fill="#802f34" d="M57 5v14a1.4 1.4 0 0 0-.27-.07L53 18.35V5c0-.552.448-1 1-1h2c.552 0 1 .448 1 1ZM57 17v14c0 .552-.448 1-1 1h-2c-.552 0-1-.448-1-1V17.65l3.73-.58c.093-.011.184-.035.27-.07Z"/>
    <rect width="12" height="7" x="38" y="1" fill="#2c2f38" rx="2"/>
    <rect width="12" height="7" x="38" y="28" fill="#2c2f38" rx="2"/>
    <path fill="#2c2f38" d="M16 2v3a2 2 0 0 1-2 2H8V6a1 1 0 0 0-1-1H4V2A2.006 2.006 0 0 1 6 0h8a2.006 2.006 0 0 1 2 2ZM16 31v3a2.006 2.006 0 0 1-2 2H6a2.006 2.006 0 0 1-2-2v-3h3a1 1 0 0 0 1-1v-1h6a2 2 0 0 1 2 2Z"/>
    <path fill="#e64c3c" d="M57 16.09a1.4 1.4 0 0 0-.27-.07L53 15.44l-7-1.1-4-.62L31 12a9.08 9.08 0 0 1-.8-3.28A3.005 3.005 0 0 0 27.21 6c-.395-.001-.786.077-1.15.23L12 11.68l-4 1.55L5 18l3 4.77 4 1.55 14.06 5.45c.364.153.755.231 1.15.23a3.005 3.005 0 0 0 2.99-2.72A9.08 9.08 0 0 1 31 24l11-1.72 4-.62 7-1.1 3.73-.58c.093-.011.184-.035.27-.07 1.33-.53 1.33-3.29 0-3.82Z"/>
    <path fill="#802f34" d="M21 15v6l-8.64-2.52a.5.5 0 0 1 0-.96L21 15Z"/>
    <path fill="#2c2f38" d="M29 18a3 3 0 0 1-3 3h-5v-6h5a3 3 0 0 1 3 3Z"/>
    <rect width="8" height="26" y="5" fill="#fb7b76" rx="1"/>
    <path fill="#e6e7e8" d="M4 11a1 1 0 0 1-1-1V9a1 1 0 1 1 2 0v1a1 1 0 0 1-1 1ZM4 20a1 1 0 0 1-1-1v-5a1 1 0 1 1 2 0v5a1 1 0 0 1-1 1Z"/>
  </g>
</svg>
